<svg width="34" height="35" viewBox="0 0 34 35" fill="none" xmlns="http://www.w3.org/2000/svg">
<path d="M32.4745 9.28493V11.36L28.1465 18.3561H25.7156H24.6484L31.348 7.3877L31.4073 7.44698C31.4073 7.44698 31.4666 7.44698 31.4666 7.50627L31.5259 7.56556C31.5259 7.56556 31.5852 7.56556 31.5852 7.62485C31.6445 7.68414 31.7038 7.68414 31.7631 7.74343L31.8224 7.80272C31.8816 7.862 31.8816 7.862 31.9409 7.92129L32.0002 7.98058C32.0002 8.03987 32.0595 8.03987 32.0595 8.09916C32.0595 8.09916 32.0595 8.15845 32.1188 8.15845C32.1781 8.21773 32.1781 8.27702 32.2374 8.33631C32.2374 8.33631 32.2374 8.33631 32.2374 8.3956V8.45489C32.2374 8.45489 32.2374 8.45489 32.2374 8.51418C32.2374 8.51418 32.2374 8.51418 32.2374 8.57347C32.2374 8.57347 32.2374 8.57347 32.2374 8.63275V8.75133V8.81062V8.86991V8.9292V8.98849C32.2374 9.04777 32.2374 9.10706 32.2374 9.10706V9.16635C32.4152 9.22564 32.4745 9.22564 32.4745 9.28493Z" fill="#C4D4D6"/>
<path d="M31.348 7.44614L24.5891 18.4738H19.6089L26.4864 7.20898H28.6207H30.2808C30.6958 7.20898 31.0516 7.32756 31.348 7.44614Z" fill="white"/>
<path d="M28.68 18.4746V34.1861H25.6562V28.1979V22.9805V18.4746H28.1464H28.68Z" fill="white"/>
<path d="M28.68 4.95605V7.20902H26.5456H25.6562V4.95605H28.68Z" fill="white"/>
<path d="M26.5456 7.20898L19.6089 18.4738H16.1108L22.9883 7.20898H25.6563H26.5456Z" fill="#C4D4D6"/>
<path d="M25.6563 22.9805H7.69189V28.2571H25.6563V22.9805Z" fill="white"/>
<path d="M22.9881 7.20898L16.1106 18.4738H11.1304L18.0078 7.20898H20.4387H22.9881Z" fill="white"/>
<path d="M20.4386 4.95605V7.20902H18.0078H14.4505H12.9683V4.95605H14.9841H18.3635H20.4386Z" fill="white"/>
<path d="M18.9563 3.47464C18.9563 4.06753 18.7192 4.54184 18.3634 4.95686H14.984C14.6283 4.54184 14.3911 4.06753 14.3911 3.47464C14.3911 2.22959 15.399 1.22168 16.6441 1.22168C17.9484 1.22168 18.9563 2.22959 18.9563 3.47464Z" fill="white"/>
<path d="M18.008 7.20898L11.1306 18.4738H7.69182H7.57324L14.4507 7.20898H18.008Z" fill="#C4D4D6"/>
<path d="M14.4508 7.20898L7.57329 18.4738H4.66815H3.06736C2.94879 18.4738 2.77092 18.4738 2.65234 18.4145L9.47053 7.20898H12.9685H14.4508Z" fill="white"/>
<path d="M9.47045 7.20898L2.59298 18.4145C2.53369 18.4145 2.53369 18.4145 2.4744 18.4145H2.41511H2.35582H2.29653H2.23725C2.23725 18.4145 2.23725 18.4145 2.17796 18.4145H2.11867C2.11867 18.4145 2.05938 18.4145 2.05938 18.3552C1.9408 18.2959 1.82223 18.2367 1.70365 18.1181L1.64436 18.0588L1.58507 17.9995L1.52578 17.9402L1.4665 17.8809C1.40721 17.8216 1.40721 17.8216 1.34792 17.7623L1.28863 17.7031C1.28863 17.7031 1.28863 17.6438 1.22934 17.6438C1.22934 17.6438 1.22934 17.5845 1.17005 17.5845C1.17005 17.5845 1.17005 17.5845 1.17005 17.5252C1.17005 17.5252 1.17005 17.5252 1.17005 17.4659V17.4066C1.11076 17.3473 1.11076 17.288 1.05148 17.1695C1.05148 17.1102 1.05148 17.1102 0.992188 17.0509C0.992188 16.9916 0.992188 16.9916 0.992188 16.9323C0.992188 16.9323 0.992188 16.873 0.992188 16.8137V16.7544V16.6952V16.6359C0.992188 16.5766 0.992188 16.5173 0.992188 16.458V15.5094L5.97242 7.20898H7.69179H9.47045Z" fill="#C4D4D6"/>
<path d="M7.69169 28.1979V34.1861H4.66797V18.4746H7.57311H7.69169V22.9805V28.1979Z" fill="white"/>
<path d="M7.69169 4.95605V7.20902H5.97232H4.66797V4.95605H7.69169Z" fill="white"/>
<path d="M5.97214 7.20898L0.932617 15.3908V9.28408C0.932617 8.1576 1.88123 7.20898 3.00772 7.20898H4.60851C4.6678 7.20898 5.97214 7.20898 5.97214 7.20898Z" fill="white"/>
<path d="M27.3755 18.8303L32.415 10.6484V16.6959C32.415 17.8224 31.4664 18.771 30.3399 18.771H28.7391H27.3755V18.8303Z" fill="white"/>
<path d="M7.69165 34.9564C7.27663 34.9564 6.9209 34.6007 6.9209 34.1857V28.1975C6.9209 27.7825 7.27663 27.4268 7.69165 27.4268C8.10667 27.4268 8.4624 27.7825 8.4624 28.1975V34.1857C8.4624 34.6007 8.10667 34.9564 7.69165 34.9564Z" fill="#ACC4C7"/>
<path d="M7.69165 23.692C7.27663 23.692 6.9209 23.3362 6.9209 22.9212V18.4153C6.9209 18.0003 7.27663 17.6445 7.69165 17.6445C8.10667 17.6445 8.4624 18.0003 8.4624 18.4153V22.9212C8.4624 23.3362 8.10667 23.692 7.69165 23.692Z" fill="#ACC4C7"/>
<path d="M4.66772 34.9561C4.2527 34.9561 3.89697 34.6004 3.89697 34.1853V18.4739C3.89697 18.0589 4.2527 17.7031 4.66772 17.7031C5.08274 17.7031 5.43848 18.0589 5.43848 18.4739V34.1853C5.49776 34.6004 5.08274 34.9561 4.66772 34.9561Z" fill="#ACC4C7"/>
<path d="M28.6799 34.9561C28.2649 34.9561 27.9092 34.6004 27.9092 34.1853V18.4739C27.9092 18.0589 28.2649 17.7031 28.6799 17.7031C29.095 17.7031 29.4507 18.0589 29.4507 18.4739V34.1853C29.4507 34.6004 29.095 34.9561 28.6799 34.9561Z" fill="#ACC4C7"/>
<path d="M25.656 23.692C25.241 23.692 24.8853 23.3362 24.8853 22.9212V18.4153C24.8853 18.0003 25.241 17.6445 25.656 17.6445C26.071 17.6445 26.4268 18.0003 26.4268 18.4153V22.9212C26.486 23.3362 26.1303 23.692 25.656 23.692Z" fill="#ACC4C7"/>
<path d="M25.656 34.9564C25.241 34.9564 24.8853 34.6007 24.8853 34.1857V28.1975C24.8853 27.7825 25.241 27.4268 25.656 27.4268C26.071 27.4268 26.4268 27.7825 26.4268 28.1975V34.1857C26.486 34.6007 26.1303 34.9564 25.656 34.9564Z" fill="#ACC4C7"/>
<path d="M28.6797 7.98001C28.2647 7.98001 27.909 7.62428 27.909 7.20926V5.72705H26.4268V7.20926C26.4268 7.62428 26.071 7.98001 25.656 7.98001C25.241 7.98001 24.8853 7.62428 24.8853 7.20926V4.9563C24.8853 4.54128 25.241 4.18555 25.656 4.18555H28.6797C29.0947 4.18555 29.4505 4.54128 29.4505 4.9563V7.20926C29.4505 7.62428 29.0947 7.98001 28.6797 7.98001Z" fill="#ACC4C7"/>
<path d="M7.69144 7.98001C7.27642 7.98001 6.92069 7.62428 6.92069 7.20926V5.72705H5.43847V7.20926C5.43847 7.62428 5.08274 7.98001 4.66772 7.98001C4.2527 7.98001 3.89697 7.62428 3.89697 7.20926V4.9563C3.89697 4.54128 4.2527 4.18555 4.66772 4.18555H7.69144C8.10646 4.18555 8.46219 4.54128 8.46219 4.9563V7.20926C8.46219 7.62428 8.10646 7.98001 7.69144 7.98001Z" fill="#ACC4C7"/>
<path d="M25.6561 28.9686H7.69165C7.27663 28.9686 6.9209 28.6128 6.9209 28.1978V22.9211C6.9209 22.5061 7.27663 22.1504 7.69165 22.1504H25.6561C26.0711 22.1504 26.4268 22.5061 26.4268 22.9211V28.1978C26.4861 28.6128 26.1304 28.9686 25.6561 28.9686ZM8.4624 27.4864H24.9446V23.6919H8.4624V27.4864Z" fill="#ACC4C7"/>
<path d="M18.3635 5.66787C18.1856 5.66787 18.0078 5.60858 17.8892 5.49C17.5927 5.19356 17.5334 4.71925 17.8299 4.42281C18.067 4.12637 18.1856 3.82992 18.1856 3.4149C18.1856 2.58486 17.5334 1.93269 16.7034 1.93269C15.8734 1.93269 15.2212 2.64415 15.2212 3.47419C15.2212 3.82992 15.3398 4.18565 15.5769 4.4821C15.8734 4.77854 15.8141 5.25285 15.5176 5.54929C15.2212 5.84573 14.7469 5.78645 14.4504 5.49C13.9761 4.95641 13.6797 4.24494 13.6797 3.53348C13.6797 1.8734 14.984 0.509766 16.7034 0.509766C18.3635 0.509766 19.7271 1.81411 19.7271 3.53348C19.7271 4.24494 19.4307 4.95641 18.9564 5.49C18.7785 5.60858 18.5413 5.66787 18.3635 5.66787Z" fill="#ACC4C7"/>
<path d="M20.4389 7.98001H12.9685C12.5535 7.98001 12.1978 7.62428 12.1978 7.20926V4.9563C12.1978 4.54128 12.5535 4.18555 12.9685 4.18555H20.4389C20.8539 4.18555 21.2096 4.54128 21.2096 4.9563V7.20926C21.2096 7.62428 20.8539 7.98001 20.4389 7.98001ZM13.68 6.4978H19.6681V5.72705H13.68V6.4978Z" fill="#ACC4C7"/>
<path d="M31.7034 34.9565H1.70337C1.28835 34.9565 0.932617 34.6008 0.932617 34.1858C0.932617 33.7708 1.28835 33.415 1.70337 33.415H31.7034C32.1184 33.415 32.4741 33.7708 32.4741 34.1858C32.4741 34.6008 32.1184 34.9565 31.7034 34.9565Z" fill="#ACC4C7"/>
<path d="M2.59294 19.1261C2.47436 19.1261 2.35578 19.0669 2.17792 19.0076C1.82219 18.7704 1.70361 18.3554 1.94076 17.9997L8.81823 6.79413C9.05539 6.4384 9.47041 6.31982 9.82614 6.55698C10.1819 6.79413 10.3004 7.20915 10.0633 7.56488L3.24511 18.7704C3.12653 19.0076 2.88938 19.1261 2.59294 19.1261Z" fill="#ACC4C7"/>
<path d="M0.932782 16.1024C0.814205 16.1024 0.695628 16.0431 0.517762 15.9839C0.162031 15.7467 0.0434541 15.3317 0.280608 14.9759L5.32013 6.79413C5.55729 6.4384 5.97231 6.31982 6.32804 6.55698C6.68377 6.79413 6.80235 7.20915 6.56519 7.56488L1.52567 15.7467C1.46638 15.9839 1.22923 16.1024 0.932782 16.1024Z" fill="#ACC4C7"/>
<path d="M11.1305 19.1854C11.012 19.1854 10.8934 19.1261 10.7155 19.0669C10.3598 18.8297 10.2412 18.4147 10.4784 18.059L17.3558 6.79413C17.593 6.4384 18.008 6.31982 18.3637 6.55698C18.7195 6.79413 18.838 7.20915 18.6009 7.56488L11.7234 18.8297C11.6048 19.0669 11.3677 19.1854 11.1305 19.1854Z" fill="#ACC4C7"/>
<path d="M7.57292 19.1854C7.45434 19.1854 7.33577 19.1261 7.1579 19.0669C6.80217 18.8297 6.68359 18.4147 6.92074 18.059L13.7982 6.79413C14.0354 6.4384 14.4504 6.31982 14.8061 6.55698C15.1619 6.79413 15.2804 7.20915 15.0433 7.56488L8.22509 18.8297C8.04723 19.0669 7.81007 19.1854 7.57292 19.1854Z" fill="#ACC4C7"/>
<path d="M19.6086 19.1854C19.49 19.1854 19.3714 19.1261 19.1935 19.0669C18.8378 18.8297 18.7192 18.4147 18.9564 18.059L25.8339 6.79413C26.071 6.4384 26.486 6.31982 26.8418 6.55698C27.1975 6.79413 27.3161 7.20915 27.0789 7.56488L20.2014 18.8297C20.0829 19.0669 19.8457 19.1854 19.6086 19.1854Z" fill="#ACC4C7"/>
<path d="M16.1105 19.1854C15.9919 19.1854 15.8734 19.1261 15.6955 19.0669C15.3398 18.8297 15.2212 18.4147 15.4583 18.059L22.3358 6.79413C22.573 6.4384 22.988 6.31982 23.3437 6.55698C23.6994 6.79413 23.818 7.20915 23.5809 7.56488L16.7627 18.8297C16.5848 19.0669 16.3477 19.1854 16.1105 19.1854Z" fill="#ACC4C7"/>
<path d="M28.1462 19.1852C28.0276 19.1852 27.909 19.1259 27.7311 19.0666C27.3754 18.8295 27.2568 18.4145 27.494 18.0587L31.822 11.0627C32.0592 10.707 32.4742 10.5884 32.83 10.8255C33.1857 11.0627 33.3043 11.4777 33.0671 11.8334L28.739 18.8295C28.6205 19.0666 28.3833 19.1852 28.1462 19.1852Z" fill="#ACC4C7"/>
<path d="M24.589 19.1859C24.4705 19.1859 24.3519 19.1266 24.174 19.0673C23.8183 18.8301 23.6997 18.4151 23.9369 18.0594L30.6365 7.09101C30.8736 6.73527 31.2886 6.6167 31.6444 6.85385C32.0001 7.091 32.1187 7.50602 31.8815 7.86176L25.2412 18.8301C25.0633 19.0673 24.8262 19.1859 24.589 19.1859Z" fill="#ACC4C7"/>
<path d="M30.2805 19.1855C1.34766 19.1855 2.94845 19.2448 2.41485 19.1262C1.70339 19.0076 0.932637 18.474 0.576906 17.7626C0.399041 17.4661 0.221175 16.9918 0.221175 16.6954C0.161886 16.399 0.221175 16.5175 0.221175 9.34361C0.221175 7.80211 1.46623 6.43848 3.12631 6.43848H13.0275C13.4425 6.43848 13.7983 6.79421 13.7983 7.20923C13.7983 7.62425 13.4425 7.97998 13.0275 7.97998H3.06703C2.35556 7.97998 1.70339 8.57286 1.70339 9.34361C1.70339 16.6361 1.70339 16.4582 1.70339 16.6361C1.76268 16.7547 1.76268 16.8733 1.82197 16.9918C1.88125 17.1697 1.94054 17.229 2.05912 17.2883C2.29627 17.5254 2.65201 17.7033 3.00774 17.7033H30.2805C30.9919 17.7033 31.6441 17.1104 31.6441 16.3397C31.6441 8.81002 31.6441 9.28433 31.6441 9.28433C31.6441 9.22504 31.6441 9.16575 31.5848 8.98788C31.5255 8.86931 31.4662 8.69144 31.4069 8.57286C31.2884 8.395 31.1698 8.27642 31.1105 8.27642C30.8734 8.09856 30.5769 7.97998 30.2805 7.97998H20.4386C20.0235 7.97998 19.6678 7.62425 19.6678 7.20923C19.6678 6.79421 20.0235 6.43848 20.4386 6.43848H30.3398C31.5848 6.43848 32.7706 7.26852 33.1263 8.57286C33.1856 8.81002 33.1856 8.98788 33.1856 9.22504V16.2211C33.1856 17.9405 31.9405 19.1855 30.2805 19.1855Z" fill="#ACC4C7"/>
</svg>
